<?xml version="1.0" encoding="UTF-8"?>
<svg id="Livello_1" data-name="Livello 1" xmlns="http://www.w3.org/2000/svg" viewBox="0 0 1902.51 452.82">
  <defs>
    <style>
      .cls-1 {
        fill: #6cb7af;
      }

      .cls-1, .cls-2, .cls-3, .cls-4, .cls-5, .cls-6 {
        stroke-width: 0px;
      }

      .cls-2 {
        fill: #1d5140;
      }

      .cls-3 {
        fill: #c4da8b;
      }

      .cls-4 {
        fill: #dfa500;
      }

      .cls-5 {
        fill: #ef7e57;
      }

      .cls-6 {
        fill: #f0b4d3;
      }
    </style>
  </defs>
  <path class="cls-6" d="M438.4,336.41c3.01,6.32,15.7,10.43,7.16,20.11-20.38,23.11-40.18,47.08-62.97,67.64-27.12,24.46-61.59,30.16-97.33,28.37-6.49-.33-12.97-1.52-13.8-9.47-.75-7.12,4.05-10.16,10.03-13.62,20.56-11.9,20.52-14.63,2.07-26.31-5.31-3.36-11.43-6.15-10.98-13.59.5-8.24,7.54-11.92,13.8-13.65,13.97-3.86,20.22-8.18,7.52-21.58-5.24-5.53-6.25-14.51.35-20.74,6.87-6.49,15.68-8.43,24.91-5.39,7.8,2.57,15.64,5.22,23.1,8.62,27.24,12.4,54.61,11.66,82.36,1.91,4.24-1.49,8.2-5.84,13.79-2.31Z"/>
  <path class="cls-4" d="M12.6,261.37c-1.93-4.72-1.55-11.67,4.62-12.08,33.72,4.45,63.82,6.66,104.01,11.97L4,204.54c-6.9-5.14-5.52-19.33,5.72-21.38,32.08,4.68,70.49,16.95,112.25,23.04-26.92-18.71-66.84-45.17-84.25-60.22-2.87-2.48-5.33-5.42-7.56-8.62-7.96-11.42.34-27.16,14.26-27.25,4.21-.03,8.3.37,12.14,1.56,24.95,7.73,67.01,40.51,93.93,51.99-14.06-20.6-45.47-60.26-60.95-82.95-6.4-9.37,2.3-21.64,13.29-18.78,66.75,17.38,85.08,112.99,88.25,119.97,27.03,59.53-79.56,135.26-155.97,103.15-9.19-3.86-23.3-15.69-22.51-23.69Z"/>
  <path class="cls-3" d="M69.04,362.6c19.16-15.17,35.29-32.14,54.91-42.55,36.72-19.48,76.56-20.05,116.11-7.81,6.8,2.1,12.37,8.5,18.21,13.28,7.74,6.33,7.11,11.74-1.18,17.9-29.84,22.17-62.2,41.72-99.1,44.15-30.12,1.98-60.82-6.63-88.95-24.97Z"/>
  <path class="cls-5" d="M530.63,196.27c-.23-9.52,3.41-75.43,3.41-75.43-83.69,1.73-125.61,57.58-159.29,125-1.13,2.27.53,7.68,9.62,13.75,28.52,19.84,53.01,36.87,81.24,56.51,3.41,2.53,6.87,4.52,8.58,5.48,9.97-14.33,22.99-34.72,31.94-49.66,16.84-28.12,25.36-39.4,24.5-75.64Z"/>
  <path class="cls-2" d="M336.54,232.53c0,27.69-25.17,39.49-52.32,44.88-28.39,5.64-50.13-24.92-50.13-50.13,0-35.41,22.56-47.65,50.13-50.13,29.59-2.66,52.32,27.7,52.32,55.38Z"/>
  <path class="cls-1" d="M347.94,99.13c-37.24-23.4-91.49-24.85-128.15-.24-.77.23-1.54.54-2.31,1.03-26.3,16.78-4.46,45.35,22.85,37.47,16.31-4.71,26.34-16.95,45.34-16.39,15.09.45,32.01,4.76,44.93,12.09,13.72,7.77,23.68,29.01,42.27,26.44,48.12-6.67-14.07-53.57-24.93-60.39Z"/>
  <path class="cls-1" d="M370.42,19.23c-47.2-21.8-128.42-30.48-170.86,3.37-1.58,1.13-3.13,2.71-4.44,4.39-7.6,9.72-10.83,20.7.65,29.71,19.14,15.03,49.06-9.29,66.85-13.47,43.25-10.17,95.6,11.13,125.95,41.62,10.69,10.74,23.82,34.33,41.82,20.4,30.36-23.49-41.85-77.66-59.96-86.02Z"/>
  <g>
    <g>
      <path class="cls-2" d="M671.63,249.29l9.17-18.19c2.15-4.26,7.39-5.7,11.56-3.36,10.66,5.98,22.22,9.19,32.07,9.19,11.05,0,16.28-3.2,16.28-8.13,0-17.15-68.3-18.31-68.3-66.56,0-25.29,20.64-43.89,54.06-43.89,18.66,0,32.85,4.9,45.85,12.51,3.71,2.17,5.06,6.89,3.15,10.74l-8.82,17.8c-2.03,4.09-7.02,5.8-11.07,3.7-9.08-4.72-18.89-8.14-29.41-8.14-9.3,0-13.37,3.49-13.37,7.56,0,17.73,68.3,14.54,68.3,65.4,0,28.2-21.22,45.64-54.93,45.64-19.42,0-37.1-4.82-51.5-13.5-3.67-2.22-4.98-6.93-3.04-10.77Z"/>
      <path class="cls-2" d="M965.67,128.62v134.67c0,4.55-3.69,8.24-8.24,8.24h-23.06c-4.55,0-8.24-3.69-8.24-8.24v-39.79c0-8.32-10.93-11.39-15.26-4.29l-16.05,26.28c-1.5,2.45-4.16,3.94-7.03,3.94h-1.79c-2.88,0-5.55-1.5-7.04-3.96l-16.04-26.41c-4.32-7.12-15.27-4.05-15.27,4.28v39.95c0,4.55-3.69,8.24-8.24,8.24h-23.06c-4.55,0-8.24-3.69-8.24-8.24v-134.67c0-4.55,3.69-8.24,8.24-8.24h26.38c2.87,0,5.54,1.5,7.03,3.95l30.09,49.34c3.21,5.26,10.85,5.26,14.06,0l30.09-49.34c1.5-2.45,4.16-3.95,7.03-3.95h26.38c4.55,0,8.24,3.69,8.24,8.24Z"/>
      <path class="cls-2" d="M1072.73,257.29h-36.16c-3.74,0-7,2.51-7.96,6.12l-.53,1.99c-.96,3.61-4.23,6.12-7.96,6.12h-23.66c-5.49,0-9.45-5.27-7.9-10.55l39.36-134.67c1.03-3.51,4.25-5.92,7.9-5.92h37.93c3.66,0,6.89,2.42,7.91,5.94l39.11,134.67c1.53,5.27-2.42,10.53-7.91,10.53h-23.68c-3.74,0-7-2.51-7.96-6.12l-.53-1.99c-.96-3.61-4.23-6.12-7.96-6.12ZM1067.08,212.38l-4.54-17.46c-2.13-8.2-13.76-8.22-15.93-.04l-4.63,17.46c-1.38,5.23,2.56,10.34,7.96,10.34h9.17c5.39,0,9.33-5.09,7.97-10.31Z"/>
      <path class="cls-2" d="M1226.3,267.83l-23.31-35.33c-1.52-2.31-4.11-3.7-6.87-3.7h-12.14v34.49c0,4.55-3.69,8.24-8.24,8.24h-23.06c-4.55,0-8.24-3.69-8.24-8.24v-134.67c0-4.55,3.69-8.24,8.24-8.24h37.4c31.97,0,79.35,0,79.35,54.06,0,23.23-9.06,36.38-21.82,44-4.14,2.47-5.39,7.86-2.63,11.82l19.77,28.32c3.81,5.46-.09,12.95-6.75,12.95h-24.83c-2.77,0-5.35-1.39-6.87-3.7ZM1201.13,193.92c14.82,0,27.61,0,27.61-18.31s-13.66-18.02-27.61-18.02h-17.15v36.33h17.15Z"/>
      <path class="cls-2" d="M1386.65,158.17h-17.24c-4.55,0-8.24,3.69-8.24,8.24v96.89c0,4.55-3.69,8.24-8.24,8.24h-23.06c-4.55,0-8.24-3.69-8.24-8.24v-96.89c0-4.55-3.69-8.24-8.24-8.24h-17.25c-4.55,0-8.24-3.69-8.24-8.24v-21.31c0-4.55,3.69-8.24,8.24-8.24h90.49c4.55,0,8.24,3.69,8.24,8.24v21.31c0,4.55-3.69,8.24-8.24,8.24Z"/>
      <g>
        <path class="cls-2" d="M1533.69,166.12v3.58c0,4.55,3.69,8.24,8.24,8.24h34.11c4.55,0,8.24,3.69,8.24,8.24v18.99c0,4.55-3.69,8.24-8.24,8.24h-34.11c-4.55,0-8.24,3.69-8.24,8.24v4.16c0,4.55,3.69,8.24,8.24,8.24h50.96c4.55,0,8.24,3.69,8.24,8.24v21.03c0,4.55-3.69,8.24-8.24,8.24h-90.49c-4.55,0-8.24-3.69-8.24-8.24v-134.67c0-4.55,3.69-8.24,8.24-8.24h90.49c4.55,0,8.24,3.69,8.24,8.24v21.03c0,4.55-3.69,8.24-8.24,8.24h-50.96c-4.55,0-8.24,3.69-8.24,8.24Z"/>
        <path class="cls-2" d="M1710.87,267.83l-23.31-35.33c-1.52-2.31-4.11-3.7-6.87-3.7h-12.14v34.49c0,4.55-3.69,8.24-8.24,8.24h-23.06c-4.55,0-8.24-3.69-8.24-8.24v-134.67c0-4.55,3.69-8.24,8.24-8.24h37.4c31.97,0,79.35,0,79.35,54.06,0,23.23-9.06,36.39-21.82,44-4.14,2.47-5.39,7.86-2.63,11.82l19.77,28.32c3.81,5.46-.09,12.95-6.75,12.95h-24.83c-2.77,0-5.35-1.39-6.87-3.7ZM1685.7,193.92c14.82,0,27.61,0,27.61-18.32s-13.66-18.02-27.61-18.02h-8.92c-4.55,0-8.24,3.69-8.24,8.24v19.86c0,4.55,3.69,8.24,8.24,8.24h8.92Z"/>
        <path class="cls-2" d="M1854.14,257.29h-36.16c-3.74,0-7,2.51-7.96,6.12l-.53,1.99c-.96,3.61-4.23,6.12-7.96,6.12h-23.66c-5.49,0-9.45-5.27-7.9-10.55l39.36-134.67c1.03-3.51,4.25-5.92,7.9-5.92h37.93c3.66,0,6.89,2.42,7.91,5.94l39.11,134.67c1.53,5.27-2.42,10.53-7.91,10.53h-23.68c-3.74,0-7-2.51-7.96-6.12l-.53-1.99c-.96-3.61-4.23-6.12-7.96-6.12ZM1848.49,212.38l-4.54-17.46c-2.13-8.2-13.76-8.22-15.93-.04l-4.63,17.46c-1.38,5.23,2.56,10.34,7.96,10.34h9.17c5.39,0,9.33-5.09,7.97-10.31Z"/>
      </g>
    </g>
    <g>
      <path class="cls-2" d="M699.22,348.53l11.63-26.72h10.29l-17.43,35.81-.08,20.07h-8.94l-.08-20.31-17.31-35.58h10.29l11.63,26.72Z"/>
      <path class="cls-2" d="M727.01,356.55c0-2.99.44-5.78,1.32-8.37.89-2.58,2.15-4.82,3.8-6.72,1.65-1.89,3.66-3.38,6.04-4.45s5.08-1.61,8.1-1.61,5.76.54,8.16,1.61,4.42,2.56,6.06,4.45c1.65,1.89,2.91,4.13,3.78,6.72.87,2.58,1.31,5.37,1.31,8.37v.81c0,3.02-.44,5.82-1.31,8.41s-2.13,4.82-3.78,6.7c-1.65,1.88-3.66,3.36-6.04,4.43s-5.08,1.61-8.1,1.61-5.77-.54-8.16-1.61c-2.4-1.07-4.42-2.55-6.06-4.43-1.65-1.88-2.92-4.11-3.8-6.7-.88-2.58-1.32-5.39-1.32-8.41v-.81ZM736.19,357.36c0,1.89.2,3.67.59,5.34s1.01,3.13,1.84,4.39c.83,1.27,1.89,2.27,3.17,2.99,1.28.73,2.8,1.1,4.57,1.1s3.21-.36,4.47-1.1c1.27-.73,2.32-1.72,3.15-2.99.83-1.26,1.45-2.73,1.84-4.39s.6-3.44.6-5.34v-.81c0-1.84-.2-3.6-.6-5.26s-1.01-3.12-1.84-4.38-1.88-2.25-3.15-2.99c-1.26-.74-2.78-1.11-4.55-1.11s-3.25.37-4.53,1.11-2.33,1.74-3.15,2.99-1.43,2.71-1.82,4.38-.59,3.42-.59,5.26v.81Z"/>
      <path class="cls-2" d="M802.51,372.02c-1.41,2.05-3.12,3.64-5.13,4.78-2.01,1.14-4.25,1.71-6.74,1.71-2.15,0-4.11-.33-5.89-1-1.78-.67-3.3-1.72-4.57-3.17-1.26-1.45-2.25-3.29-2.95-5.53-.71-2.24-1.06-4.93-1.06-8.08v-24.57h9.17v24.64c0,2,.15,3.65.44,4.95s.75,2.34,1.36,3.11,1.38,1.31,2.3,1.63,2.02.48,3.3.48c2.46,0,4.44-.48,5.95-1.44,1.51-.96,2.65-2.26,3.42-3.89v-29.48h9.21v41.53h-8.29l-.54-5.68Z"/>
      <path class="cls-2" d="M851.57,335.4c.74,0,1.48.03,2.23.08s1.45.13,2.13.23,1.3.21,1.86.33c.56.11,1.04.25,1.42.4l-1.31,9.02c-2.81-.64-5.59-.96-8.33-.96-3.07,0-5.55.64-7.43,1.92-1.88,1.28-3.27,3.06-4.17,5.34v25.95h-9.17v-41.53h8.6l.42,6.49c1.69-2.25,3.69-4.02,6.01-5.31,2.31-1.29,4.89-1.94,7.73-1.94Z"/>
      <path class="cls-2" d="M935.55,371.17c1.13,0,2.22-.18,3.28-.54s2-.86,2.82-1.5,1.46-1.39,1.94-2.26.7-1.82.67-2.84h8.67c.03,2-.43,3.87-1.36,5.62s-2.2,3.28-3.8,4.59c-1.6,1.31-3.45,2.34-5.55,3.11s-4.3,1.15-6.6,1.15c-3.2,0-6-.55-8.41-1.65s-4.41-2.6-6.03-4.51c-1.61-1.91-2.82-4.12-3.63-6.64-.8-2.52-1.21-5.2-1.21-8.04v-1.38c0-2.84.4-5.53,1.21-8.06.81-2.53,2.02-4.75,3.63-6.64s3.62-3.4,6.03-4.51c2.41-1.11,5.19-1.67,8.37-1.67,2.51,0,4.83.38,6.97,1.15,2.13.77,3.98,1.84,5.53,3.22,1.55,1.38,2.75,3.03,3.61,4.95.85,1.92,1.27,4.02,1.25,6.29h-8.67c.03-1.13-.17-2.19-.6-3.19-.42-1-1.03-1.87-1.82-2.61s-1.73-1.33-2.8-1.77-2.25-.65-3.53-.65c-1.92,0-3.52.39-4.8,1.17-1.28.78-2.3,1.81-3.07,3.07-.77,1.27-1.31,2.71-1.63,4.32s-.48,3.25-.48,4.91v1.38c0,1.69.16,3.34.48,4.95s.86,3.05,1.63,4.32c.77,1.27,1.79,2.29,3.07,3.07,1.28.78,2.89,1.17,4.84,1.17Z"/>
      <path class="cls-2" d="M962.88,356.55c0-2.99.44-5.78,1.32-8.37.89-2.58,2.15-4.82,3.8-6.72,1.65-1.89,3.66-3.38,6.04-4.45s5.08-1.61,8.1-1.61,5.76.54,8.16,1.61,4.42,2.56,6.06,4.45c1.65,1.89,2.91,4.13,3.78,6.72s1.31,5.37,1.31,8.37v.81c0,3.02-.44,5.82-1.31,8.41s-2.13,4.82-3.78,6.7c-1.65,1.88-3.66,3.36-6.04,4.43-2.38,1.07-5.08,1.61-8.1,1.61s-5.77-.54-8.16-1.61c-2.4-1.07-4.42-2.55-6.06-4.43-1.65-1.88-2.92-4.11-3.8-6.7-.88-2.58-1.32-5.39-1.32-8.41v-.81ZM972.06,357.36c0,1.89.2,3.67.59,5.34.4,1.66,1.01,3.13,1.84,4.39.83,1.27,1.89,2.27,3.17,2.99,1.28.73,2.8,1.1,4.57,1.1s3.21-.36,4.47-1.1c1.27-.73,2.32-1.72,3.15-2.99.83-1.26,1.45-2.73,1.84-4.39s.6-3.44.6-5.34v-.81c0-1.84-.2-3.6-.6-5.26s-1.01-3.12-1.84-4.38-1.88-2.25-3.15-2.99c-1.26-.74-2.78-1.11-4.55-1.11s-3.25.37-4.53,1.11-2.33,1.74-3.15,2.99-1.43,2.71-1.82,4.38c-.4,1.66-.59,3.42-.59,5.26v.81Z"/>
      <path class="cls-2" d="M1017.04,336.17l.23,4.38c.82-1.61,1.92-2.87,3.3-3.78,1.38-.91,3.05-1.36,4.99-1.36,1.77,0,3.23.35,4.39,1.05,1.16.71,2.04,1.8,2.63,3.28.82-1.33,1.87-2.38,3.15-3.17s2.83-1.17,4.64-1.17c1.36,0,2.6.23,3.74.67,1.14.45,2.11,1.16,2.92,2.13.8.97,1.43,2.21,1.88,3.72s.67,3.33.67,5.45v30.32h-8.52v-30.4c0-1.66-.35-2.81-1.06-3.43s-1.6-.94-2.7-.94-1.88.25-2.49.75c-.61.5-1.06,1.16-1.34,1.98v32.05h-8.33v-30.4c0-1.61-.33-2.74-.98-3.4-.66-.65-1.54-.98-2.67-.98s-1.92.23-2.53.69-1.09,1.09-1.42,1.88v32.2h-8.52v-41.53h8.02Z"/>
      <path class="cls-2" d="M1064.22,336.17l.23,4.38c.82-1.61,1.92-2.87,3.3-3.78,1.38-.91,3.05-1.36,4.99-1.36,1.77,0,3.23.35,4.39,1.05,1.16.71,2.04,1.8,2.63,3.28.82-1.33,1.87-2.38,3.15-3.17s2.83-1.17,4.64-1.17c1.36,0,2.6.23,3.74.67,1.14.45,2.11,1.16,2.92,2.13.8.97,1.43,2.21,1.88,3.72s.67,3.33.67,5.45v30.32h-8.52v-30.4c0-1.66-.35-2.81-1.06-3.43s-1.6-.94-2.7-.94-1.88.25-2.49.75c-.61.5-1.06,1.16-1.34,1.98v32.05h-8.33v-30.4c0-1.61-.33-2.74-.98-3.4-.66-.65-1.54-.98-2.67-.98s-1.92.23-2.53.69-1.09,1.09-1.42,1.88v32.2h-8.52v-41.53h8.02Z"/>
      <path class="cls-2" d="M1132.73,372.02c-1.41,2.05-3.12,3.64-5.13,4.78-2.01,1.14-4.25,1.71-6.74,1.71-2.15,0-4.11-.33-5.89-1-1.78-.67-3.3-1.72-4.57-3.17-1.26-1.45-2.25-3.29-2.95-5.53-.71-2.24-1.06-4.93-1.06-8.08v-24.57h9.17v24.64c0,2,.15,3.65.44,4.95s.75,2.34,1.36,3.11,1.38,1.31,2.3,1.63,2.02.48,3.3.48c2.46,0,4.44-.48,5.95-1.44,1.51-.96,2.65-2.26,3.42-3.89v-29.48h9.21v41.53h-8.29l-.54-5.68Z"/>
      <path class="cls-2" d="M1161.56,336.17l.58,5.76c1.51-2.07,3.33-3.68,5.47-4.82,2.13-1.14,4.51-1.71,7.12-1.71,2.12,0,4.06.31,5.81.92s3.27,1.57,4.53,2.88c1.27,1.31,2.25,2.99,2.96,5.07.7,2.07,1.05,4.57,1.05,7.48v25.95h-9.17v-25.79c0-1.71-.2-3.15-.6-4.3s-.96-2.07-1.69-2.76c-.73-.69-1.62-1.18-2.67-1.48-1.05-.29-2.24-.44-3.57-.44-2.02,0-3.78.45-5.28,1.34-1.49.9-2.7,2.11-3.63,3.65v29.79h-9.21v-41.53h8.29Z"/>
      <path class="cls-2" d="M1202.44,336.17h22.15v33.93h12.32v7.6h-34.47v-7.6h12.9v-26.29h-12.9v-7.64ZM1214.57,325.42c0-1.43.46-2.62,1.38-3.55.92-.93,2.21-1.4,3.88-1.4s3,.47,3.94,1.4c.93.94,1.4,2.12,1.4,3.55s-.47,2.62-1.4,3.55c-.94.93-2.25,1.4-3.94,1.4s-2.96-.47-3.88-1.4-1.38-2.12-1.38-3.55Z"/>
      <path class="cls-2" d="M1266,326.11v10.06h15.7v6.83h-15.7v19.92c0,1.56.18,2.85.56,3.88.37,1.02.89,1.84,1.55,2.46s1.45,1.04,2.34,1.28c.9.25,1.88.37,2.96.37.79,0,1.62-.04,2.47-.14.86-.09,1.69-.19,2.5-.31.8-.11,1.55-.24,2.23-.38.68-.14,1.25-.27,1.71-.4l1.04,6.33c-.67.38-1.47.74-2.4,1.05-.93.32-1.95.58-3.05.79s-2.25.36-3.43.48c-1.19.11-2.36.17-3.51.17-2.07,0-3.97-.29-5.7-.86-1.73-.58-3.21-1.47-4.45-2.69-1.24-1.22-2.22-2.78-2.92-4.68-.71-1.91-1.06-4.19-1.06-6.85v-20.42h-10.13v-6.83h10.13v-10.06h9.17Z"/>
      <path class="cls-2" d="M1311.25,361.08l1.57,4.99,11.67-29.9h10.17l-21.03,47.83c-.46,1.05-1.06,2.18-1.8,3.4-.74,1.21-1.66,2.35-2.75,3.4s-2.38,1.92-3.89,2.63-3.28,1.06-5.3,1.06c-.84,0-1.7-.07-2.55-.21s-1.62-.3-2.28-.48l1.31-7.14c.18,0,.42,0,.73.02s.63.03.96.06.64.04.94.06c.29.01.53.02.71.02.9,0,1.69-.26,2.4-.79.7-.53,1.33-1.13,1.86-1.81s.98-1.34,1.33-2c.34-.65.59-1.09.75-1.32l2.73-5.14-17.66-39.57h10.13l10.02,24.91Z"/>
      <path class="cls-2" d="M1362.15,376.43c0,1.36-.17,2.75-.52,4.18-.34,1.43-.84,2.84-1.49,4.22-.66,1.38-1.44,2.69-2.34,3.94-.91,1.24-1.91,2.35-3.01,3.32l-5.18-2.73c1.1-1.84,1.94-3.78,2.53-5.81.59-2.04.88-4.31.88-6.81v-8.02h9.17l-.04,7.72Z"/>
      <path class="cls-2" d="M1434.62,356.55c0-2.99.44-5.78,1.32-8.37.89-2.58,2.15-4.82,3.8-6.72,1.65-1.89,3.66-3.38,6.04-4.45s5.08-1.61,8.1-1.61,5.76.54,8.16,1.61,4.42,2.56,6.06,4.45c1.65,1.89,2.91,4.13,3.78,6.72.87,2.58,1.31,5.37,1.31,8.37v.81c0,3.02-.44,5.82-1.31,8.41s-2.13,4.82-3.78,6.7c-1.65,1.88-3.66,3.36-6.04,4.43s-5.08,1.61-8.1,1.61-5.77-.54-8.16-1.61c-2.4-1.07-4.42-2.55-6.06-4.43-1.65-1.88-2.92-4.11-3.8-6.7-.88-2.58-1.32-5.39-1.32-8.41v-.81ZM1443.79,357.36c0,1.89.2,3.67.59,5.34s1.01,3.13,1.84,4.39c.83,1.27,1.89,2.27,3.17,2.99,1.28.73,2.8,1.1,4.57,1.1s3.21-.36,4.47-1.1c1.27-.73,2.32-1.72,3.15-2.99.83-1.26,1.45-2.73,1.84-4.39s.6-3.44.6-5.34v-.81c0-1.84-.2-3.6-.6-5.26s-1.01-3.12-1.84-4.38-1.88-2.25-3.15-2.99c-1.26-.74-2.78-1.11-4.55-1.11s-3.25.37-4.53,1.11-2.33,1.74-3.15,2.99-1.43,2.71-1.82,4.38-.59,3.42-.59,5.26v.81Z"/>
      <path class="cls-2" d="M1510.12,372.02c-1.41,2.05-3.12,3.64-5.13,4.78-2.01,1.14-4.25,1.71-6.74,1.71-2.15,0-4.11-.33-5.89-1-1.78-.67-3.3-1.72-4.57-3.17-1.26-1.45-2.25-3.29-2.95-5.53-.71-2.24-1.06-4.93-1.06-8.08v-24.57h9.17v24.64c0,2,.15,3.65.44,4.95s.75,2.34,1.36,3.11,1.38,1.31,2.3,1.63,2.02.48,3.3.48c2.46,0,4.44-.48,5.95-1.44,1.51-.96,2.65-2.26,3.42-3.89v-29.48h9.21v41.53h-8.29l-.54-5.68Z"/>
      <path class="cls-2" d="M1559.18,335.4c.74,0,1.48.03,2.23.08s1.45.13,2.13.23,1.3.21,1.86.33c.56.11,1.04.25,1.42.4l-1.31,9.02c-2.81-.64-5.59-.96-8.33-.96-3.07,0-5.55.64-7.43,1.92-1.88,1.28-3.27,3.06-4.17,5.34v25.95h-9.17v-41.53h8.6l.42,6.49c1.69-2.25,3.69-4.02,6.01-5.31,2.31-1.29,4.89-1.94,7.73-1.94Z"/>
      <path class="cls-2" d="M1635.45,377.7v-34.7h-11.17v-6.83h11.17v-2.57c0-2.69.4-5.06,1.21-7.12.8-2.06,1.97-3.78,3.49-5.18s3.36-2.46,5.51-3.19c2.15-.73,4.57-1.09,7.25-1.09,1.77,0,3.45.14,5.05.4,1.6.27,3.27.58,5.01.94l-.81,7.29c-1-.28-2.16-.53-3.49-.75s-2.83-.33-4.49-.33c-3.3,0-5.71.78-7.23,2.34-1.53,1.56-2.29,3.79-2.29,6.68v2.57h15.43v6.83h-15.43v34.7h-9.21Z"/>
      <path class="cls-2" d="M1698.82,372.02c-1.41,2.05-3.12,3.64-5.13,4.78-2.01,1.14-4.25,1.71-6.74,1.71-2.15,0-4.11-.33-5.89-1-1.78-.67-3.3-1.72-4.57-3.17-1.26-1.45-2.25-3.29-2.95-5.53-.71-2.24-1.06-4.93-1.06-8.08v-24.57h9.17v24.64c0,2,.15,3.65.44,4.95s.75,2.34,1.36,3.11,1.38,1.31,2.3,1.63,2.02.48,3.3.48c2.46,0,4.44-.48,5.95-1.44,1.51-.96,2.65-2.26,3.42-3.89v-29.48h9.21v41.53h-8.29l-.54-5.68Z"/>
      <path class="cls-2" d="M1737.74,326.11v10.06h15.7v6.83h-15.7v19.92c0,1.56.18,2.85.56,3.88.37,1.02.89,1.84,1.55,2.46s1.45,1.04,2.34,1.28c.9.25,1.88.37,2.96.37.79,0,1.62-.04,2.47-.14.86-.09,1.69-.19,2.5-.31.8-.11,1.55-.24,2.23-.38.68-.14,1.25-.27,1.71-.4l1.04,6.33c-.67.38-1.47.74-2.4,1.05-.93.32-1.95.58-3.05.79s-2.25.36-3.43.48c-1.19.11-2.36.17-3.51.17-2.07,0-3.97-.29-5.7-.86-1.73-.58-3.21-1.47-4.45-2.69-1.24-1.22-2.22-2.78-2.92-4.68-.71-1.91-1.06-4.19-1.06-6.85v-20.42h-10.13v-6.83h10.13v-10.06h9.17Z"/>
      <path class="cls-2" d="M1793.16,372.02c-1.41,2.05-3.12,3.64-5.13,4.78-2.01,1.14-4.25,1.71-6.74,1.71-2.15,0-4.11-.33-5.89-1-1.78-.67-3.3-1.72-4.57-3.17-1.26-1.45-2.25-3.29-2.95-5.53-.71-2.24-1.06-4.93-1.06-8.08v-24.57h9.17v24.64c0,2,.15,3.65.44,4.95s.75,2.34,1.36,3.11,1.38,1.31,2.3,1.63,2.02.48,3.3.48c2.46,0,4.44-.48,5.95-1.44,1.51-.96,2.65-2.26,3.42-3.89v-29.48h9.21v41.53h-8.29l-.54-5.68Z"/>
      <path class="cls-2" d="M1842.22,335.4c.74,0,1.48.03,2.23.08s1.45.13,2.13.23,1.3.21,1.86.33c.56.11,1.04.25,1.42.4l-1.31,9.02c-2.81-.64-5.59-.96-8.33-.96-3.07,0-5.55.64-7.43,1.92-1.88,1.28-3.27,3.06-4.17,5.34v25.95h-9.17v-41.53h8.6l.42,6.49c1.69-2.25,3.69-4.02,6.01-5.31,2.31-1.29,4.89-1.94,7.73-1.94Z"/>
      <path class="cls-2" d="M1880.22,378.47c-3.07,0-5.87-.51-8.41-1.54s-4.7-2.43-6.5-4.22c-1.81-1.79-3.21-3.91-4.2-6.35s-1.5-5.09-1.5-7.93v-1.57c0-3.3.53-6.27,1.59-8.91s2.48-4.89,4.26-6.76c1.78-1.87,3.85-3.3,6.22-4.3,2.36-1,4.85-1.5,7.46-1.5,3.02,0,5.68.51,7.98,1.51,2.3,1.01,4.23,2.43,5.78,4.26s2.72,4,3.51,6.5,1.19,5.26,1.19,8.25v3.88h-28.79c.15,1.61.55,3.11,1.19,4.49s1.48,2.58,2.52,3.59c1.03,1.01,2.25,1.8,3.64,2.38,1.39.57,2.92.86,4.59.86,2.33,0,4.47-.46,6.43-1.38,1.96-.92,3.55-2.19,4.78-3.8l4.99,4.68c-.67,1-1.52,1.97-2.57,2.9-1.05.94-2.28,1.77-3.68,2.5-1.41.73-2.99,1.32-4.74,1.77-1.76.45-3.67.67-5.74.67ZM1879.11,342.81c-1.28,0-2.47.23-3.57.69s-2.09,1.13-2.96,2.01c-.87.89-1.61,1.96-2.21,3.22-.6,1.27-1.03,2.71-1.29,4.32h19.46v-.69c-.08-1.23-.31-2.41-.71-3.55-.4-1.14-.98-2.15-1.75-3.05s-1.73-1.61-2.9-2.15c-1.17-.54-2.53-.81-4.09-.81Z"/>
    </g>
  </g>
</svg>